# xmcd CD database file
#
# Track frame offsets:
#        150
#        12273
#        23509
#        36743
#        53242
#        66156
#        78176
#        92638
#        109362
#        123217
#        133764
#        147098
#        159816
#        171593
#        189362
#        199140
#        212970
#        223993
#        235135
#        246820
#
# Disc length: 3415 seconds
#
# Revision: 0
# Processed by: cddbd v1.5.2PL0 Copyright (c) Steve Scherf et al.
# Submitted via: CUERipper 2.1.5
#
DISCID=210d5514
DTITLE=B.B. King - Confessin'
DYEAR=1900
DGENRE=
TTITLE0=Confessin'
TTITLE1=Please Accept My Love
TTITLE2=The Woman I Love
TTITLE3=Walking Dr. Bill
TTITLE4=Someday Baby
TTITLE5=Sugar Mama
TTITLE6=Mr. Pawn Broker
TTITLE7=3 O'Clock Blues
TTITLE8=My Sometime Baby
TTITLE9=Treat Me Right
TTITLE10=Troubles, Troubles, Troubles
TTITLE11=Gonna Miss You Around Here
TTITLE12=Understand
TTITLE13=Hold That Train
TTITLE14=My Reward
TTITLE15=You Know I Love You
TTITLE16=Days Of Old
TTITLE17=Mean Ole Frisco
TTITLE18=Easy Listening Blues
TTITLE19=Time to Say Goodbye
EXTD=
EXTT0=
EXTT1=
EXTT2=
EXTT3=
EXTT4=
EXTT5=
EXTT6=
EXTT7=
EXTT8=
EXTT9=
EXTT10=
EXTT11=
EXTT12=
EXTT13=
EXTT14=
EXTT15=
EXTT16=
EXTT17=
EXTT18=
EXTT19=
PLAYORDER=
